<?xml version="1.0" encoding="UTF-8" standalone="no"?>
<svg
   version="1.1"
   id="svg2"
   inkscape:version="1.1 (ce6663b3b7, 2021-05-25)"
   sodipodi:docname="ioscor_logo.svg"
   x="0px"
   y="0px"
   width="1365.333px"
   height="568.333px"
   viewBox="0 0 1365.333 568.333"
   enable-background="new 0 0 1365.333 568.333"
   xml:space="preserve"
   xmlns:inkscape="http://www.inkscape.org/namespaces/inkscape"
   xmlns:sodipodi="http://sodipodi.sourceforge.net/DTD/sodipodi-0.dtd"
   xmlns:xlink="http://www.w3.org/1999/xlink"
   xmlns="http://www.w3.org/2000/svg"
   xmlns:svg="http://www.w3.org/2000/svg"
   xmlns:rdf="http://www.w3.org/1999/02/22-rdf-syntax-ns#"
   xmlns:cc="http://creativecommons.org/ns#"
   xmlns:dc="http://purl.org/dc/elements/1.1/"><metadata
   id="metadata98"><rdf:RDF><cc:Work
       rdf:about=""><dc:format>image/svg+xml</dc:format><dc:type
         rdf:resource="http://purl.org/dc/dcmitype/StillImage" /></cc:Work></rdf:RDF></metadata><defs
   id="defs96" />
<sodipodi:namedview
   inkscape:cy="322.62144"
   inkscape:cx="684.07693"
   inkscape:zoom="0.33475767"
   fit-margin-left="0"
   fit-margin-top="0"
   showgrid="false"
   guidetolerance="10"
   gridtolerance="10"
   objecttolerance="10"
   borderopacity="1"
   bordercolor="#666666"
   pagecolor="#ffffff"
   id="namedview4"
   inkscape:document-rotation="0"
   inkscape:current-layer="svg2"
   inkscape:window-maximized="1"
   inkscape:window-y="28"
   inkscape:window-x="0"
   fit-margin-bottom="0"
   fit-margin-right="0"
   inkscape:window-height="684"
   inkscape:window-width="1366"
   inkscape:pageshadow="2"
   inkscape:pageopacity="0"
   inkscape:pagecheckerboard="0">
	</sodipodi:namedview>
<g
   id="g17"
   transform="translate(4,-4)">
	<defs
   id="defs4">
		<rect
   id="SVGID_1_"
   x="-397.98999"
   y="-316.521"
   width="2168.5081"
   height="1403.156" />
	</defs>
	<clipPath
   id="SVGID_2_">
		<use
   xlink:href="#SVGID_1_"
   overflow="visible"
   id="use6"
   x="0"
   y="0"
   width="100%"
   height="100%" />
	</clipPath>
	<path
   clip-path="url(#SVGID_2_)"
   fill="#363636"
   d="m 96.026,514.417 c -7.031,0 -13.438,-1.563 -19.25,-4.711 -5.789,-3.133 -8.68,-8.031 -8.68,-14.68 v -366.75 c 0,-6.664 2.891,-11.469 8.68,-14.422 5.813,-2.953 12.219,-4.422 19.25,-4.422 7.031,0 13.453,1.469 19.25,4.422 5.789,2.953 8.688,7.758 8.688,14.422 v 366.75 c 0,6.648 -2.898,11.547 -8.688,14.68 -5.797,3.148 -12.219,4.711 -19.25,4.711"
   id="path9" />
	<path
   clip-path="url(#SVGID_2_)"
   fill="#363636"
   d="m 297.799,517.745 c -22.141,0 -42.094,-4.063 -59.828,-12.195 -17.758,-8.109 -31.82,-21.234 -42.18,-39.328 -10.359,-18.102 -15.563,-42.109 -15.563,-72.023 V 232.963 c 0,-29.914 5.203,-53.906 15.563,-72.016 10.359,-18.094 24.422,-31.211 42.18,-39.336 17.734,-8.117 37.867,-12.18 60.367,-12.18 22.125,0 42.156,4.063 60.078,12.18 17.93,8.125 32.172,21.242 42.695,39.336 10.547,18.109 15.82,42.102 15.82,72.016 v 161.234 c 0,29.914 -5.273,53.922 -15.82,72.023 -10.523,18.094 -24.766,31.219 -42.695,39.328 -17.921,8.134 -38.132,12.197 -60.617,12.197 m 0,-52.078 c 19.68,0 35.133,-5.82 46.383,-17.453 11.25,-11.641 16.875,-29.648 16.875,-54.016 V 232.963 c 0,-24.359 -5.531,-42.375 -16.594,-54 -11.078,-11.633 -26.461,-17.461 -46.125,-17.461 -19.703,0 -35.07,5.828 -46.125,17.461 -11.086,11.625 -16.625,29.641 -16.625,54 v 161.234 c 0,24.367 5.438,42.375 16.344,54.016 10.875,11.633 26.172,17.454 45.867,17.454"
   id="path11" />
	<path
   clip-path="url(#SVGID_2_)"
   fill="#363636"
   d="m 565.557,518.846 c -22.852,0 -43.047,-3.516 -60.609,-10.516 -17.578,-7.023 -31.297,-15.602 -41.133,-25.773 -9.844,-10.156 -14.75,-19.844 -14.75,-29.078 0,-4.43 1.125,-9.047 3.43,-13.852 2.266,-4.789 5.258,-8.953 8.945,-12.469 3.695,-3.516 7.648,-5.258 11.867,-5.258 4.914,0 9.563,2.125 13.969,6.367 4.391,4.242 9.75,9.328 16.078,15.234 6.32,5.914 14.234,11.086 23.727,15.508 9.492,4.43 21.609,6.656 36.367,6.656 12.656,0 23.992,-2.117 34.008,-6.375 10.008,-4.234 17.914,-10.703 23.719,-19.375 5.805,-8.695 8.703,-19.68 8.703,-32.977 0,-14.039 -3.078,-25.664 -9.227,-34.914 -6.156,-9.219 -14.422,-16.977 -24.781,-23.25 -10.367,-6.297 -21.523,-12.008 -33.477,-17.195 -11.953,-5.156 -24.063,-10.703 -36.367,-16.609 -12.304,-5.906 -23.555,-13.023 -33.75,-21.32 -10.18,-8.32 -18.375,-18.844 -24.508,-31.594 -6.148,-12.742 -9.227,-28.719 -9.227,-47.914 0,-20.32 3.602,-37.313 10.813,-50.977 7.188,-13.656 16.773,-24.563 28.727,-32.68 11.945,-8.141 25.125,-13.945 39.547,-17.453 14.406,-3.516 28.633,-5.266 42.695,-5.266 8.773,0 18.531,0.641 29.266,1.945 10.703,1.297 21.156,3.516 31.359,6.641 10.188,3.141 18.617,7.297 25.297,12.461 6.68,5.172 10.016,11.461 10.016,18.836 0,3.703 -0.875,8.023 -2.633,13.023 -1.758,4.984 -4.305,9.328 -7.648,13.023 -3.336,3.688 -7.625,5.531 -12.898,5.531 -4.578,0 -9.688,-1.734 -15.297,-5.25 -5.625,-3.508 -12.914,-7.016 -21.883,-10.531 -8.945,-3.508 -20.828,-5.266 -35.578,-5.266 -12.656,0 -23.977,1.844 -34.016,5.539 -10,3.695 -17.828,9.148 -23.445,16.336 -5.625,7.203 -8.438,16.727 -8.438,28.531 0,11.828 3.07,21.523 9.227,29.094 6.133,7.57 14.328,14.039 24.5,19.391 10.203,5.359 21.359,10.445 33.492,15.234 12.117,4.813 24.242,10.438 36.375,16.891 12.117,6.477 23.359,14.328 33.734,23.555 10.359,9.227 18.625,20.977 24.773,35.18 6.156,14.227 9.234,31.859 9.234,52.906 0,26.594 -5.203,48.672 -15.563,66.211 -10.367,17.547 -24.594,30.563 -42.695,39.055 -18.101,8.502 -38.75,12.744 -61.945,12.744"
   id="path13" />
	<path
   clip-path="url(#SVGID_2_)"
   fill="#363636"
   d="m 1165.604,524.081 c -8,0 -14.625,-2.094 -19.883,-6.297 -5.273,-4.188 -7.891,-8.773 -7.891,-13.727 v -231.75 c 0,-5.711 2.617,-10.391 7.891,-14.008 5.258,-3.641 11.883,-5.445 19.883,-5.445 7.258,0 13.414,1.805 18.508,5.445 5.086,3.617 7.633,8.297 7.633,14.008 v 25.18 c 3.984,-8.008 9.328,-15.641 16.047,-22.883 6.734,-7.234 14.625,-13.25 23.68,-18.031 9.07,-4.766 18.875,-7.156 29.406,-7.156 h 17.422 c 5.797,0 10.898,2.586 15.258,7.727 4.359,5.156 6.539,11.367 6.539,18.602 0,7.242 -2.18,13.547 -6.539,18.875 -4.359,5.359 -9.461,8.008 -15.258,8.008 h -17.422 c -10.883,0 -21.43,3.445 -31.57,10.313 -10.18,6.867 -18.438,16.508 -24.781,28.891 -6.352,12.398 -9.516,27.375 -9.516,44.922 V 504.06 c 0,4.953 -2.828,9.539 -8.453,13.727 -5.626,4.2 -12.602,6.294 -20.954,6.294"
   id="path15" />
</g>
<g
   id="g36"
   transform="translate(0,-4)">
	<defs
   id="defs20">
		<path
   id="SVGID_3_"
   d="m 794.354,137.104 c -19.25,7.93 -34.508,20.711 -45.828,38.336 -11.336,17.648 -17,41.055 -17,70.219 V 402.8 c 0,29.164 5.664,52.586 17,70.211 11.32,17.664 26.492,30.438 45.547,38.352 19.055,7.914 39.906,11.875 62.547,11.875 26.031,0 48.656,-4.32 67.898,-12.961 4.57,-2.055 8.898,-4.305 12.992,-6.734 5.047,4.164 10.688,7.813 16.984,10.852 13.281,6.422 28.945,9.688 46.563,9.688 15.43,0 29.898,-2.977 42.961,-8.836 13.758,-6.148 24.836,-16.156 32.906,-29.734 7.906,-13.266 11.93,-30.727 11.93,-51.852 V 329.768 c 0,-21.125 -4.023,-38.57 -11.93,-51.852 -8.086,-13.602 -19.234,-23.609 -33.102,-29.766 -13.219,-5.852 -27.719,-8.82 -43.102,-8.82 -9.914,0 -19.648,-0.406 -27.703,3.055 -12.039,5.172 -21.617,17.352 -19.844,30.094 0.563,3.977 1.898,7.844 3.852,11.391 7.43,7.445 16.875,11.867 27.945,12.031 0.633,0.016 1.227,0.031 1.844,0.047 2.898,-0.805 7.031,-1.422 12.852,-1.422 10.32,0 17.805,2.547 22.836,7.82 5.164,5.398 7.789,14.609 7.789,27.422 v 103.891 c 0,12.758 -2.656,21.953 -7.898,27.359 -5.164,5.289 -12.938,7.875 -23.766,7.875 -6.82,0 -12.25,-0.984 -15.781,-2.828 -3.445,-1.805 -5.852,-3.898 -7.367,-6.375 -1.773,-2.891 -3.023,-6.039 -3.742,-9.305 -0.32,-1.484 -0.953,-2.852 -1.797,-4.039 v -51.203 c 0,-11.313 -9.453,-20.555 -21.023,-20.555 h -17.805 c -11.547,0 -21.008,9.242 -21.008,20.555 v 60.117 c -3.898,4.266 -9,7.945 -15.313,11.016 -8.484,4.141 -19.891,6.203 -34.219,6.203 -22.641,0 -39.906,-5.672 -51.789,-17.016 -11.883,-11.336 -17.82,-28.891 -17.82,-52.664 v -157.14 c 0,-23.766 5.836,-41.328 17.539,-52.656 11.695,-11.344 28.477,-17.008 50.367,-17.008 15.094,0 26.977,2.078 35.664,6.203 8.664,4.141 17.469,10.047 22.43,15.891 1.266,1.5 3.195,4.305 4.32,5.016 11.656,7.258 26.617,-1.969 35.633,-14.531 9.844,-13.734 -5.031,-31.141 -17.945,-41.719 -5.789,-4.734 -14.68,-9.672 -22.117,-12.977 -19.055,-8.453 -33.641,-8.656 -59.672,-8.656 -22.64,-10e-4 -43.578,3.96 -62.828,11.882" />
	</defs>
	<clipPath
   id="SVGID_4_">
		<use
   xlink:href="#SVGID_3_"
   overflow="visible"
   id="use22"
   x="0"
   y="0"
   width="100%"
   height="100%" />
	</clipPath>
	
		<linearGradient
   id="SVGID_5_"
   gradientUnits="userSpaceOnUse"
   x1="564.20947"
   y1="362.82669"
   x2="573.2135"
   y2="362.82669"
   gradientTransform="matrix(40.8423,0,0,40.8423,-22312.105,-14494.027)">
		<stop
   offset="0"
   style="stop-color:#8DC4D8"
   id="stop25" />
		<stop
   offset="0.3226"
   style="stop-color:#8BBEA8"
   id="stop27" />
		<stop
   offset="0.6935"
   style="stop-color:#79B27E"
   id="stop29" />
		<stop
   offset="1"
   style="stop-color:#68A95E"
   id="stop31" />
	</linearGradient>
	<rect
   x="731.526"
   y="125.229"
   clip-path="url(#SVGID_4_)"
   fill="url(#SVGID_5_)"
   width="357.328"
   height="398.85199"
   id="rect34"
   style="fill:url(#SVGID_5_)" />
</g>
<g
   id="g55">
	<defs
   id="defs39">
		<path
   id="SVGID_6_"
   d="M912.588,332.987c0,13.906,11.531,25.172,25.734,25.172s25.734-11.266,25.734-25.172    s-11.531-25.172-25.734-25.172S912.588,319.081,912.588,332.987" />
	</defs>
	<clipPath
   id="SVGID_7_">
		<use
   xlink:href="#SVGID_6_"
   overflow="visible"
   id="use41" />
	</clipPath>
	
		<linearGradient
   id="SVGID_8_"
   gradientUnits="userSpaceOnUse"
   x1="597.8115"
   y1="371.0278"
   x2="606.8115"
   y2="371.0278"
   gradientTransform="matrix(5.8827 0 0 5.8827 -2604.157 -1849.6567)">
		<stop
   offset="0"
   style="stop-color:#8DC4D8"
   id="stop44" />
		<stop
   offset="0.3226"
   style="stop-color:#8BBEA8"
   id="stop46" />
		<stop
   offset="0.6935"
   style="stop-color:#79B27E"
   id="stop48" />
		<stop
   offset="1"
   style="stop-color:#68A95E"
   id="stop50" />
	</linearGradient>
	<rect
   x="912.588"
   y="307.815"
   clip-path="url(#SVGID_7_)"
   fill="url(#SVGID_8_)"
   width="51.469"
   height="50.344"
   id="rect53" />
</g>
<g
   id="g74">
	<defs
   id="defs58">
		<path
   id="SVGID_9_"
   d="M985.94,188.87c0,15.398,12.742,27.891,28.492,27.891c15.734,0,28.492-12.492,28.492-27.891    s-12.758-27.867-28.492-27.867C998.682,161.002,985.94,173.471,985.94,188.87" />
	</defs>
	<clipPath
   id="SVGID_10_">
		<use
   xlink:href="#SVGID_9_"
   overflow="visible"
   id="use60" />
	</clipPath>
	
		<linearGradient
   id="SVGID_11_"
   gradientUnits="userSpaceOnUse"
   x1="604.4907"
   y1="350.4937"
   x2="613.4872"
   y2="350.4937"
   gradientTransform="matrix(6.5153 0 0 6.5153 -2952.4956 -2094.6904)">
		<stop
   offset="0"
   style="stop-color:#8DC4D8"
   id="stop63" />
		<stop
   offset="0.3226"
   style="stop-color:#8BBEA8"
   id="stop65" />
		<stop
   offset="0.6935"
   style="stop-color:#79B27E"
   id="stop67" />
		<stop
   offset="1"
   style="stop-color:#68A95E"
   id="stop69" />
	</linearGradient>
	<rect
   x="985.94"
   y="161.002"
   clip-path="url(#SVGID_10_)"
   fill="url(#SVGID_11_)"
   width="56.984"
   height="55.758"
   id="rect72" />
</g>
<g
   id="g93"
   transform="translate(0,-2)">
	<defs
   id="defs77">
		<path
   id="SVGID_12_"
   d="m 815.838,65.471 c 0,20.492 16.961,37.102 37.914,37.102 20.93,0 37.914,-16.609 37.914,-37.102 0,-20.484 -16.984,-37.086 -37.914,-37.086 -20.953,0 -37.914,16.602 -37.914,37.086" />
	</defs>
	<clipPath
   id="SVGID_13_">
		<use
   xlink:href="#SVGID_12_"
   overflow="visible"
   id="use79"
   x="0"
   y="0"
   width="100%"
   height="100%" />
	</clipPath>
	
		<linearGradient
   id="SVGID_14_"
   gradientUnits="userSpaceOnUse"
   x1="576.75342"
   y1="340.58539"
   x2="585.7514"
   y2="340.58539"
   gradientTransform="matrix(8.6687,0,0,8.6687,-4183.8667,-2886.9512)">
		<stop
   offset="0"
   style="stop-color:#8DC4D8"
   id="stop82" />
		<stop
   offset="0.3226"
   style="stop-color:#8BBEA8"
   id="stop84" />
		<stop
   offset="0.6935"
   style="stop-color:#79B27E"
   id="stop86" />
		<stop
   offset="1"
   style="stop-color:#68A95E"
   id="stop88" />
	</linearGradient>
	<rect
   x="815.83801"
   y="28.385"
   clip-path="url(#SVGID_13_)"
   fill="url(#SVGID_14_)"
   width="75.828003"
   height="74.188004"
   id="rect91"
   style="fill:url(#SVGID_14_)" />
</g>
</svg>
